<svg id="visual" viewBox="0 0 900 600" width="900" height="600" xmlns="http://www.w3.org/2000/svg" xmlns:xlink="http://www.w3.org/1999/xlink" version="1.1"><rect x="0" y="0" width="900" height="600" fill="#e5e7eb"></rect><path d="M0 194L15 190.5C30 187 60 180 90 180.3C120 180.7 150 188.3 180 196.5C210 204.7 240 213.3 270 215.8C300 218.3 330 214.7 360 211.2C390 207.7 420 204.3 450 208.5C480 212.7 510 224.3 540 217C570 209.7 600 183.3 630 185.2C660 187 690 217 720 235.5C750 254 780 261 810 246C840 231 870 194 885 175.5L900 157L900 0L885 0C870 0 840 0 810 0C780 0 750 0 720 0C690 0 660 0 630 0C600 0 570 0 540 0C510 0 480 0 450 0C420 0 390 0 360 0C330 0 300 0 270 0C240 0 210 0 180 0C150 0 120 0 90 0C60 0 30 0 15 0L0 0Z" fill="#e5e7eb"></path><path d="M0 128L15 140.7C30 153.3 60 178.7 90 179.2C120 179.7 150 155.3 180 156.7C210 158 240 185 270 191.2C300 197.3 330 182.7 360 168.3C390 154 420 140 450 145.2C480 150.3 510 174.7 540 184C570 193.3 600 187.7 630 187.2C660 186.7 690 191.3 720 194.8C750 198.3 780 200.7 810 194.3C840 188 870 173 885 165.5L900 158L900 0L885 0C870 0 840 0 810 0C780 0 750 0 720 0C690 0 660 0 630 0C600 0 570 0 540 0C510 0 480 0 450 0C420 0 390 0 360 0C330 0 300 0 270 0C240 0 210 0 180 0C150 0 120 0 90 0C60 0 30 0 15 0L0 0Z" fill="#bbbdc0"></path><path d="M0 129L15 132C30 135 60 141 90 144.5C120 148 150 149 180 148.7C210 148.3 240 146.7 270 139.8C300 133 330 121 360 123.8C390 126.7 420 144.3 450 152.2C480 160 510 158 540 151.7C570 145.3 600 134.7 630 141.5C660 148.3 690 172.7 720 171.2C750 169.7 780 142.3 810 132C840 121.7 870 128.3 885 131.7L900 135L900 0L885 0C870 0 840 0 810 0C780 0 750 0 720 0C690 0 660 0 630 0C600 0 570 0 540 0C510 0 480 0 450 0C420 0 390 0 360 0C330 0 300 0 270 0C240 0 210 0 180 0C150 0 120 0 90 0C60 0 30 0 15 0L0 0Z" fill="#929497"></path><path d="M0 140L15 131.7C30 123.3 60 106.7 90 102.8C120 99 150 108 180 116.7C210 125.3 240 133.7 270 138.7C300 143.7 330 145.3 360 136.5C390 127.7 420 108.3 450 109C480 109.7 510 130.3 540 138.8C570 147.3 600 143.7 630 132C660 120.3 690 100.7 720 104.2C750 107.7 780 134.3 810 134.8C840 135.3 870 109.7 885 96.8L900 84L900 0L885 0C870 0 840 0 810 0C780 0 750 0 720 0C690 0 660 0 630 0C600 0 570 0 540 0C510 0 480 0 450 0C420 0 390 0 360 0C330 0 300 0 270 0C240 0 210 0 180 0C150 0 120 0 90 0C60 0 30 0 15 0L0 0Z" fill="#6b6d70"></path><path d="M0 119L15 117.3C30 115.7 60 112.3 90 105.5C120 98.7 150 88.3 180 81C210 73.7 240 69.3 270 70.2C300 71 330 77 360 81.7C390 86.3 420 89.7 450 88.8C480 88 510 83 540 79.3C570 75.7 600 73.3 630 80.5C660 87.7 690 104.3 720 111.5C750 118.7 780 116.3 810 114.3C840 112.3 870 110.7 885 109.8L900 109L900 0L885 0C870 0 840 0 810 0C780 0 750 0 720 0C690 0 660 0 630 0C600 0 570 0 540 0C510 0 480 0 450 0C420 0 390 0 360 0C330 0 300 0 270 0C240 0 210 0 180 0C150 0 120 0 90 0C60 0 30 0 15 0L0 0Z" fill="#46484b"></path><path d="M0 49L15 54.7C30 60.3 60 71.7 90 77.2C120 82.7 150 82.3 180 77.7C210 73 240 64 270 55.8C300 47.7 330 40.3 360 45.2C390 50 420 67 450 67.8C480 68.7 510 53.3 540 52.5C570 51.7 600 65.3 630 72.5C660 79.7 690 80.3 720 74.3C750 68.3 780 55.7 810 49.2C840 42.7 870 42.3 885 42.2L900 42L900 0L885 0C870 0 840 0 810 0C780 0 750 0 720 0C690 0 660 0 630 0C600 0 570 0 540 0C510 0 480 0 450 0C420 0 390 0 360 0C330 0 300 0 270 0C240 0 210 0 180 0C150 0 120 0 90 0C60 0 30 0 15 0L0 0Z" fill="#252629"></path><path d="M0 45L15 47C30 49 60 53 90 53.7C120 54.3 150 51.7 180 47.8C210 44 240 39 270 33.3C300 27.7 330 21.3 360 18.8C390 16.3 420 17.7 450 20.5C480 23.3 510 27.7 540 31C570 34.3 600 36.7 630 39.8C660 43 690 47 720 44.5C750 42 780 33 810 34.2C840 35.3 870 46.7 885 52.3L900 58L900 0L885 0C870 0 840 0 810 0C780 0 750 0 720 0C690 0 660 0 630 0C600 0 570 0 540 0C510 0 480 0 450 0C420 0 390 0 360 0C330 0 300 0 270 0C240 0 210 0 180 0C150 0 120 0 90 0C60 0 30 0 15 0L0 0Z" fill="#000000"></path></svg>