<svg id="visual" viewBox="0 0 900 600" width="900" height="600" xmlns="http://www.w3.org/2000/svg" xmlns:xlink="http://www.w3.org/1999/xlink" version="1.1"><rect x="0" y="0" width="900" height="600" fill="#e5e7eb"></rect><path d="M0 434L15 436.7C30 439.3 60 444.7 90 445.7C120 446.7 150 443.3 180 445.7C210 448 240 456 270 446.7C300 437.3 330 410.7 360 396.8C390 383 420 382 450 392.5C480 403 510 425 540 425.3C570 425.7 600 404.3 630 397.3C660 390.3 690 397.7 720 391.8C750 386 780 367 810 364C840 361 870 374 885 380.5L900 387L900 601L885 601C870 601 840 601 810 601C780 601 750 601 720 601C690 601 660 601 630 601C600 601 570 601 540 601C510 601 480 601 450 601C420 601 390 601 360 601C330 601 300 601 270 601C240 601 210 601 180 601C150 601 120 601 90 601C60 601 30 601 15 601L0 601Z" fill="#e5e7eb"></path><path d="M0 473L15 456C30 439 60 405 90 400.2C120 395.3 150 419.7 180 424.7C210 429.7 240 415.3 270 415C300 414.7 330 428.3 360 430.5C390 432.7 420 423.3 450 426.2C480 429 510 444 540 450.2C570 456.3 600 453.7 630 443.3C660 433 690 415 720 409.8C750 404.7 780 412.3 810 421C840 429.7 870 439.3 885 444.2L900 449L900 601L885 601C870 601 840 601 810 601C780 601 750 601 720 601C690 601 660 601 630 601C600 601 570 601 540 601C510 601 480 601 450 601C420 601 390 601 360 601C330 601 300 601 270 601C240 601 210 601 180 601C150 601 120 601 90 601C60 601 30 601 15 601L0 601Z" fill="#c0c3c6"></path><path d="M0 478L15 470.7C30 463.3 60 448.7 90 436.7C120 424.7 150 415.3 180 419.8C210 424.3 240 442.7 270 453.7C300 464.7 330 468.3 360 459.2C390 450 420 428 450 420.2C480 412.3 510 418.7 540 433C570 447.3 600 469.7 630 480.5C660 491.3 690 490.7 720 489.7C750 488.7 780 487.3 810 480.8C840 474.3 870 462.7 885 456.8L900 451L900 601L885 601C870 601 840 601 810 601C780 601 750 601 720 601C690 601 660 601 630 601C600 601 570 601 540 601C510 601 480 601 450 601C420 601 390 601 360 601C330 601 300 601 270 601C240 601 210 601 180 601C150 601 120 601 90 601C60 601 30 601 15 601L0 601Z" fill="#9d9fa3"></path><path d="M0 435L15 435.5C30 436 60 437 90 448.7C120 460.3 150 482.7 180 488C210 493.3 240 481.7 270 477.5C300 473.3 330 476.7 360 477C390 477.3 420 474.7 450 480.5C480 486.3 510 500.7 540 507C570 513.3 600 511.7 630 503.2C660 494.7 690 479.3 720 466.8C750 454.3 780 444.7 810 452C840 459.3 870 483.7 885 495.8L900 508L900 601L885 601C870 601 840 601 810 601C780 601 750 601 720 601C690 601 660 601 630 601C600 601 570 601 540 601C510 601 480 601 450 601C420 601 390 601 360 601C330 601 300 601 270 601C240 601 210 601 180 601C150 601 120 601 90 601C60 601 30 601 15 601L0 601Z" fill="#7b7d81"></path><path d="M0 477L15 475.8C30 474.7 60 472.3 90 472C120 471.7 150 473.3 180 481C210 488.7 240 502.3 270 506.8C300 511.3 330 506.7 360 505C390 503.3 420 504.7 450 503C480 501.3 510 496.7 540 497.7C570 498.7 600 505.3 630 509C660 512.7 690 513.3 720 513.7C750 514 780 514 810 515.8C840 517.7 870 521.3 885 523.2L900 525L900 601L885 601C870 601 840 601 810 601C780 601 750 601 720 601C690 601 660 601 630 601C600 601 570 601 540 601C510 601 480 601 450 601C420 601 390 601 360 601C330 601 300 601 270 601C240 601 210 601 180 601C150 601 120 601 90 601C60 601 30 601 15 601L0 601Z" fill="#5b5d60"></path><path d="M0 544L15 544.3C30 544.7 60 545.3 90 543.7C120 542 150 538 180 537.2C210 536.3 240 538.7 270 533C300 527.3 330 513.7 360 510.2C390 506.7 420 513.3 450 520.5C480 527.7 510 535.3 540 538.5C570 541.7 600 540.3 630 541.5C660 542.7 690 546.3 720 546C750 545.7 780 541.3 810 537.5C840 533.7 870 530.3 885 528.7L900 527L900 601L885 601C870 601 840 601 810 601C780 601 750 601 720 601C690 601 660 601 630 601C600 601 570 601 540 601C510 601 480 601 450 601C420 601 390 601 360 601C330 601 300 601 270 601C240 601 210 601 180 601C150 601 120 601 90 601C60 601 30 601 15 601L0 601Z" fill="#3c3e41"></path><path d="M0 528L15 532.3C30 536.7 60 545.3 90 546.2C120 547 150 540 180 541.3C210 542.7 240 552.3 270 557.5C300 562.7 330 563.3 360 561.2C390 559 420 554 450 552.5C480 551 510 553 540 554.7C570 556.3 600 557.7 630 557.3C660 557 690 555 720 552.8C750 550.7 780 548.3 810 547.2C840 546 870 546 885 546L900 546L900 601L885 601C870 601 840 601 810 601C780 601 750 601 720 601C690 601 660 601 630 601C600 601 570 601 540 601C510 601 480 601 450 601C420 601 390 601 360 601C330 601 300 601 270 601C240 601 210 601 180 601C150 601 120 601 90 601C60 601 30 601 15 601L0 601Z" fill="#202224"></path><path d="M0 558L15 558.7C30 559.3 60 560.7 90 561.3C120 562 150 562 180 565.7C210 569.3 240 576.7 270 578.2C300 579.7 330 575.3 360 570.7C390 566 420 561 450 557.2C480 553.3 510 550.7 540 554C570 557.3 600 566.7 630 570.5C660 574.3 690 572.7 720 570.3C750 568 780 565 810 561.3C840 557.7 870 553.3 885 551.2L900 549L900 601L885 601C870 601 840 601 810 601C780 601 750 601 720 601C690 601 660 601 630 601C600 601 570 601 540 601C510 601 480 601 450 601C420 601 390 601 360 601C330 601 300 601 270 601C240 601 210 601 180 601C150 601 120 601 90 601C60 601 30 601 15 601L0 601Z" fill="#000000"></path></svg>